<?xml version="1.0" standalone="no"?>
<!DOCTYPE svg PUBLIC "-//W3C//DTD SVG 20010904//EN"
 "http://www.w3.org/TR/2001/REC-SVG-20010904/DTD/svg10.dtd">
<svg version="1.0" xmlns="http://www.w3.org/2000/svg"
 width="512.000000pt" height="512.000000pt" viewBox="0 0 512.000000 512.000000"
 preserveAspectRatio="xMidYMid meet">

<g transform="translate(0.000000,512.000000) scale(0.100000,-0.100000)"
fill="#000000" stroke="none">
<path d="M3803 4983 c-60 -21 -128 -91 -167 -172 -30 -63 -44 -114 -61 -225
l-7 -40 -25 65 c-54 133 -133 232 -225 281 -66 34 -157 32 -226 -7 -63 -34
-101 -79 -142 -167 -31 -65 -59 -177 -60 -233 0 -23 -7 -13 -33 50 -113 279
-333 382 -500 235 -76 -67 -144 -234 -148 -360 0 -34 -1 -34 -11 -10 -45 108
-96 197 -139 244 -158 174 -373 135 -473 -85 -29 -62 -56 -160 -56 -200 0 -62
-13 -75 -80 -82 -78 -9 -124 -30 -150 -71 -11 -18 -50 -147 -86 -287 -37 -140
-71 -258 -75 -263 -4 -4 -114 88 -244 205 -130 118 -251 222 -268 231 -41 22
-119 23 -163 2 -37 -18 -272 -271 -299 -324 -21 -41 -17 -135 8 -173 9 -14
178 -171 374 -348 197 -177 366 -330 376 -339 18 -17 8 -56 -283 -1156 -227
-857 -300 -1148 -296 -1174 11 -69 69 -120 145 -128 28 -2 51 -5 51 -6 0 0 -9
-33 -20 -71 -24 -83 -25 -126 -5 -164 19 -38 68 -78 103 -85 39 -9 3399 100
3429 111 34 12 73 45 88 72 19 39 837 3934 838 3994 1 53 -19 88 -73 125 -27
18 -47 22 -104 22 l-72 0 4 33 c5 53 -34 118 -90 146 l-48 23 -142 -16 c-79
-9 -155 -19 -169 -22 -23 -4 -27 0 -38 38 -45 149 -170 302 -271 332 -65 19
-111 19 -167 -1z m122 -203 c35 -21 82 -88 109 -152 14 -37 14 -38 -7 -42 -40
-9 -190 -26 -223 -26 -32 0 -33 1 -27 38 11 66 43 146 70 174 32 33 36 34 78
8z m-649 -112 c33 -38 84 -129 84 -154 0 -6 -47 -16 -117 -23 -65 -7 -126 -15
-137 -18 -17 -5 -18 -1 -12 33 16 91 39 149 70 180 41 41 62 37 112 -18z
m-689 -74 c31 -33 93 -141 93 -162 0 -5 -48 -14 -107 -21 -60 -7 -120 -14
-135 -17 -24 -5 -28 -2 -28 18 0 43 31 142 56 181 33 51 73 51 121 1z m2031
-44 c12 -11 24 -31 27 -43 6 -23 -737 -3480 -775 -3607 -38 -126 -125 -190
-259 -190 -59 0 -88 6 -128 24 -104 49 -192 154 -247 296 -39 100 -58 125
-111 146 -68 26 -102 15 -244 -78 -452 -296 -1031 -482 -1721 -553 -170 -18
-631 -32 -674 -21 -39 10 -66 41 -66 77 0 27 559 2167 578 2211 6 14 74 -43
362 -303 195 -176 364 -327 376 -335 11 -8 164 -65 340 -128 222 -79 327 -113
346 -109 15 3 39 17 53 30 39 40 34 86 -25 203 -35 70 -47 102 -38 105 7 2 47
16 88 31 256 90 284 92 441 37 97 -34 112 -37 224 -37 115 0 125 2 240 41 66
23 164 62 218 87 93 43 98 47 95 73 -2 17 -10 29 -21 31 -10 2 -67 -18 -125
-44 -219 -97 -372 -134 -476 -115 -30 6 -95 25 -143 42 -127 47 -219 45 -363
-6 -140 -49 -223 -76 -225 -73 -1 2 -38 77 -82 168 -78 162 -81 167 -161 240
-45 40 -82 78 -82 83 0 19 116 -3 210 -40 133 -51 212 -51 360 1 209 74 224
79 295 80 57 0 90 -7 180 -38 97 -34 120 -39 200 -38 105 0 197 22 347 82 170
68 213 92 213 119 0 47 -24 46 -135 -4 -304 -137 -411 -151 -612 -85 -184 61
-227 57 -498 -40 -148 -53 -207 -52 -355 4 -96 37 -104 38 -197 34 l-97 -5
-333 300 c-183 164 -352 317 -376 339 l-43 39 71 270 c39 149 75 281 80 294
12 32 42 46 111 54 l57 7 6 -65 c4 -37 13 -91 20 -121 12 -53 11 -57 -15 -105
-35 -64 -43 -112 -28 -170 23 -90 111 -144 206 -126 137 26 243 174 219 306
-13 66 -94 135 -160 135 -27 0 -31 10 -42 107 l-6 62 33 5 c19 3 115 15 214
26 99 11 192 23 207 26 25 5 27 3 33 -43 3 -26 13 -83 21 -126 15 -73 14 -78
-4 -105 -30 -43 -45 -100 -40 -157 17 -205 301 -207 402 -3 64 128 9 265 -115
286 -48 8 -53 18 -62 119 -5 62 -27 54 228 83 99 11 196 23 216 26 l36 5 6
-73 c4 -40 13 -96 21 -125 12 -44 12 -54 0 -64 -7 -6 -23 -36 -35 -67 -51
-137 24 -262 157 -262 150 1 287 164 254 304 -16 73 -85 136 -146 136 -40 0
-48 20 -49 115 l0 60 180 21 c99 12 205 25 236 28 l56 7 7 -69 c4 -38 13 -92
21 -122 13 -51 13 -54 -10 -88 -94 -139 -18 -312 137 -312 137 0 275 160 254
294 -13 82 -81 146 -154 146 -34 0 -39 10 -48 110 l-6 65 378 46 c452 55 444
55 472 29z m-2724 -31 c35 -30 114 -172 99 -176 -11 -3 -244 -33 -258 -33 -27
0 22 173 60 214 31 34 57 33 99 -5z m2966 -154 c17 -9 33 -27 36 -42 9 -33
-810 -3946 -832 -3981 -8 -13 -25 -26 -37 -31 -30 -11 -3365 -117 -3400 -108
-18 5 -33 19 -43 40 -13 29 -13 39 9 117 l23 85 80 -2 c350 -11 973 -5 1194
10 519 36 949 79 1495 148 358 45 400 57 473 132 23 23 52 67 66 97 17 38 141
591 396 1770 204 943 374 1726 379 1740 6 19 16 26 47 31 67 10 84 10 114 -6z
m-986 -161 c21 -22 26 -36 26 -78 -1 -48 -2 -50 -16 -31 -20 26 -64 111 -64
125 0 18 27 10 54 -16z m-683 -83 c24 -24 29 -38 29 -76 0 -28 -4 -44 -10 -40
-12 8 -55 81 -69 118 -15 38 11 37 50 -2z m469 -41 c7 -17 30 -55 51 -85 l38
-55 -35 0 c-69 0 -109 68 -88 148 9 30 19 28 34 -8z m-1170 -25 c32 -17 55
-72 46 -111 l-7 -26 -18 24 c-32 41 -70 128 -56 128 3 0 19 -7 35 -15z m511
-100 c16 -27 36 -60 45 -72 16 -23 16 -23 -18 -23 -52 0 -88 40 -88 96 0 23 3
50 7 60 7 20 3 25 54 -61z m-1171 -3 c21 -26 30 -119 10 -107 -15 9 -58 86
-65 117 -6 23 -4 26 14 21 12 -3 30 -17 41 -31z m536 -154 c11 -11 12 -18 4
-23 -15 -9 -75 12 -95 35 -19 21 -26 90 -12 124 6 16 14 8 48 -50 22 -38 47
-76 55 -86z m-766 59 c0 -8 20 -45 45 -83 24 -38 45 -72 45 -76 0 -12 -36 -9
-65 4 -45 20 -66 82 -49 146 7 24 24 30 24 9z m-775 -37 l28 -29 -159 -177
c-87 -97 -168 -187 -179 -201 l-20 -24 -34 35 -34 35 177 195 c97 108 180 196
185 196 4 0 20 -13 36 -30z m709 -639 c554 -498 616 -558 616 -585 0 -16 -7
-38 -17 -48 -40 -45 -37 -47 -686 537 -340 305 -617 558 -617 562 0 9 74 91
81 89 4 0 284 -250 623 -555z m-271 -307 c583 -525 618 -558 615 -587 -4 -41
-45 -72 -79 -59 -13 6 -300 259 -637 562 l-613 553 42 43 c24 24 46 44 49 44
3 0 284 -250 623 -556z m1004 -497 l61 -124 -70 -79 c-39 -43 -74 -80 -77 -81
-3 -2 -66 19 -139 45 -115 42 -131 50 -118 62 9 7 21 31 27 54 9 35 18 44 57
63 51 24 82 65 82 107 0 20 6 27 28 32 15 4 38 15 52 25 14 10 27 19 30 19 3
0 33 -56 67 -123z"/>
<path d="M3825 3488 c-168 -77 -274 -109 -385 -115 -91 -5 -100 -4 -200 32
-74 26 -129 38 -185 42 -79 5 -85 4 -262 -56 -226 -76 -261 -78 -396 -24 -86
35 -98 37 -197 37 -91 -1 -122 -6 -230 -38 -194 -57 -287 -60 -344 -11 -33 29
-49 31 -66 10 -48 -58 96 -134 224 -119 28 3 119 24 201 47 200 54 254 54 385
1 84 -34 105 -38 180 -38 78 -1 99 4 255 59 211 73 243 75 396 22 140 -48 216
-55 340 -29 152 31 431 150 438 186 3 17 -23 47 -38 45 -3 0 -55 -23 -116 -51z"/>
<path d="M3446 1999 c-175 -81 -276 -111 -386 -117 -90 -4 -101 -2 -205 34
-94 32 -123 38 -200 38 -85 1 -100 -2 -259 -58 -212 -74 -247 -75 -386 -20
-87 35 -103 39 -190 39 -81 0 -114 -6 -225 -39 -196 -58 -294 -61 -355 -10
-64 55 -99 -8 -35 -64 69 -61 177 -62 390 -4 237 64 234 65 440 -9 123 -43
170 -39 388 36 209 72 244 73 399 21 59 -20 134 -39 166 -42 110 -12 263 26
462 113 113 50 150 73 150 94 0 10 -29 39 -38 38 -4 0 -56 -23 -116 -50z"/>
<path d="M3325 1505 c-49 -24 -139 -60 -200 -81 -97 -33 -121 -38 -210 -38
-91 0 -109 3 -204 37 -149 53 -223 52 -381 -4 -260 -92 -295 -96 -433 -45
-130 48 -133 49 -212 48 -49 -1 -108 -12 -193 -36 -226 -65 -312 -70 -371 -20
-33 27 -53 30 -71 9 -18 -22 -2 -53 43 -83 38 -25 47 -27 151 -26 97 1 126 5
236 38 175 52 235 56 330 21 41 -15 107 -36 145 -47 91 -25 152 -16 346 52
200 71 231 72 394 20 127 -41 133 -42 240 -38 93 4 127 10 217 41 158 53 318
131 318 154 0 23 -19 43 -39 42 -9 0 -56 -20 -106 -44z"/>
</g>
</svg>
